# xmcd
#
# Track frame offsets:
#       151
#       9804
#       20636
#       33390
#       41025
#       53584
#       67867
#       77683
#       87491
#       96748
#       108247
#       117510
#       130185
#       147497
#       158014
#       171026
#       179593
#       192649
#       206676
#       217863
#       231359
#       247473
#       260001
#       273507
#       292337
#
# Disc length: 4123 seconds
#
# Revision: 1
# Processed by: cddbd v1.5.1PL0 Copyright (c) Steve Scherf et al.
# Submitted via: MusiCat 1.1
#
DISCID=7f101919
DTITLE=John Mayall and the Bluesbreakers - The First 5 Years
DYEAR=1900
DGENRE=
TTITLE0=Crawling Up A Hill
TTITLE1=Crocodile Walk
TTITLE2=Bye Bye Bird
TTITLE3=Nowhere To Run
TTITLE4=On Top Of The World
TTITLE5=Everybody's Got Trouble
TTITLE6=Instrumental
TTITLE7=I'm Your Witchdoctor
TTITLE8=Cheating Woman
TTITLE9=On Top Of The World 
TTITLE10=Key To Love
TTITLE11=I Won't Be Loving Anymore
TTITLE12=Times Gonna Come
TTITLE13=Riding On The L&N
TTITLE14=Sitting In The Rain
TTITLE15=Leaping Christine
TTITLE16=Curly
TTITLE17=Worried Love
TTITLE18=Supermarket Day
TTITLE19=Snowy Wood 
TTITLE20=Suspicious
TTITLE21=Picture On The Wall
TTITLE22=Knockers Step Forward
TTITLE23=I'm Gonna Fight For You J B
TTITLE24=The Laws Must Change
EXTD=Pontiac\n\n1-4: BBC London 4/26/65 - 5:Studio London Oct 65 - 6-7: Studio -
EXTD=London early 1966 -  8-11: BBC London early 1966 - 12-13: Studio-London 196
EXTD=7 - 14-17: BBC London Jan 67 - 18-21: BBC London "Top Gear" 10/30/67 - 22-23
EXTD=: BB London "Top Gear" 3/26/68 - 24: Bremen Germany 1969 - 25: Los Angeles 
EXTD="Music Scene" 12/30/69
EXTT0=
EXTT1=
EXTT2=
EXTT3=
EXTT4=
EXTT5=
EXTT6=
EXTT7=
EXTT8=
EXTT9=
EXTT10=
EXTT11=
EXTT12=
EXTT13=
EXTT14=
EXTT15=
EXTT16=
EXTT17=
EXTT18=
EXTT19=
EXTT20=
EXTT21=
EXTT22=
EXTT23=
EXTT24=
PLAYORDER=
